<?xml version="1.0" encoding="UTF-8" standalone="no"?>
<svg width="128" height="128" viewBox="0 0 128 128" xmlns="http://www.w3.org/2000/svg">
  <defs>
    <linearGradient id="gradient" x1="0%" y1="0%" x2="100%" y2="100%">
      <stop offset="0%" stop-color="#263238" />
      <stop offset="100%" stop-color="#1E272C" />
    </linearGradient>
  </defs>
  <rect width="128" height="128" rx="14" fill="url(#gradient)" />
  <g transform="translate(24, 24)">
    <!-- C letter for ColorShift -->
    <path d="M40,16 C40,7.163444 32.836556,0 24,0 C15.163444,0 8,7.163444 8,16 C8,24.836556 15.163444,32 24,32 C32.836556,32 40,24.836556 40,16 Z" fill="#82AAFF" />
    <path d="M32,16 C32,11.581722 28.418278,8 24,8 C19.581722,8 16,11.581722 16,16 C16,20.418278 19.581722,24 24,24 C28.418278,24 32,20.418278 32,16 Z" fill="url(#gradient)" />
    
    <!-- S letter for ColorShift -->
    <path d="M64,48 C64,39.163444 56.836556,32 48,32 C39.163444,32 32,39.163444 32,48 C32,56.836556 39.163444,64 48,64 C56.836556,64 64,56.836556 64,48 Z" fill="#C792EA" />
    <path d="M56,48 C56,43.581722 52.418278,40 48,40 C43.581722,40 40,43.581722 40,48 C40,52.418278 43.581722,56 48,56 C52.418278,56 56,52.418278 56,48 Z" fill="url(#gradient)" />
    
    <!-- M letter for Material -->
    <path d="M40,80 C40,71.163444 32.836556,64 24,64 C15.163444,64 8,71.163444 8,80 C8,88.836556 15.163444,96 24,96 C32.836556,96 40,88.836556 40,80 Z" fill="#C3E88D" />
    <path d="M32,80 C32,75.581722 28.418278,72 24,72 C19.581722,72 16,75.581722 16,80 C16,84.418278 19.581722,88 24,88 C28.418278,88 32,84.418278 32,80 Z" fill="url(#gradient)" />
  </g>
</svg> 